<mxfile host="app.diagrams.net" agent="Mozilla/5.0 (Windows NT 10.0; Win64; x64) AppleWebKit/537.36 (KHTML, like Gecko) Chrome/141.0.0.0 Safari/537.36" version="28.2.4">
  <diagram name="Страница — 1" id="DDcloDTUqTshtyGj_7HB">
    <mxGraphModel dx="2912" dy="1112" grid="1" gridSize="10" guides="1" tooltips="1" connect="1" arrows="1" fold="1" page="1" pageScale="1" pageWidth="827" pageHeight="1169" math="0" shadow="0">
      <root>
        <mxCell id="0" />
        <mxCell id="1" parent="0" />
        <mxCell id="_K5rB_ff1AMVYgc-aTN5-12" value="" style="shape=folder;fontStyle=1;spacingTop=10;tabWidth=40;tabHeight=14;tabPosition=left;html=1;whiteSpace=wrap;" vertex="1" parent="1">
          <mxGeometry x="-413" y="590" width="470" height="242.5" as="geometry" />
        </mxCell>
        <mxCell id="_K5rB_ff1AMVYgc-aTN5-9" value="" style="shape=folder;fontStyle=1;spacingTop=10;tabWidth=40;tabHeight=14;tabPosition=left;html=1;whiteSpace=wrap;" vertex="1" parent="1">
          <mxGeometry x="170" y="288.75" width="470" height="242.5" as="geometry" />
        </mxCell>
        <mxCell id="_K5rB_ff1AMVYgc-aTN5-3" value="" style="shape=folder;fontStyle=1;spacingTop=10;tabWidth=40;tabHeight=14;tabPosition=left;html=1;whiteSpace=wrap;" vertex="1" parent="1">
          <mxGeometry x="-378.5" y="307.5" width="470" height="242.5" as="geometry" />
        </mxCell>
        <mxCell id="_K5rB_ff1AMVYgc-aTN5-2" value="&lt;span style=&quot;font-weight: 400;&quot;&gt;com.is.lab1.repository&lt;/span&gt;" style="shape=folder;fontStyle=1;spacingTop=10;tabWidth=40;tabHeight=14;tabPosition=left;html=1;whiteSpace=wrap;" vertex="1" parent="1">
          <mxGeometry x="-690" y="307.5" width="226" height="205" as="geometry" />
        </mxCell>
        <mxCell id="_K5rB_ff1AMVYgc-aTN5-1" value="&lt;span style=&quot;font-weight: 400;&quot;&gt;com.is.lab1&lt;/span&gt;" style="shape=folder;fontStyle=1;spacingTop=10;tabWidth=40;tabHeight=14;tabPosition=left;html=1;whiteSpace=wrap;" vertex="1" parent="1">
          <mxGeometry x="-420" y="60" width="526" height="205" as="geometry" />
        </mxCell>
        <mxCell id="CTMe33j5zIT5Y6U0V3GE-8" style="rounded=0;orthogonalLoop=1;jettySize=auto;html=1;entryX=0;entryY=0;entryDx=226;entryDy=14;strokeColor=default;entryPerimeter=0;" parent="1" source="_K5rB_ff1AMVYgc-aTN5-1" target="_K5rB_ff1AMVYgc-aTN5-2" edge="1">
          <mxGeometry relative="1" as="geometry">
            <mxPoint x="-338.3333333333335" y="260" as="sourcePoint" />
            <mxPoint x="-450" y="280" as="targetPoint" />
          </mxGeometry>
        </mxCell>
        <mxCell id="CTMe33j5zIT5Y6U0V3GE-3" value="Lab2Application" style="rounded=0;whiteSpace=wrap;html=1;" parent="1" vertex="1">
          <mxGeometry x="-190" y="190" width="120" height="60" as="geometry" />
        </mxCell>
        <mxCell id="CTMe33j5zIT5Y6U0V3GE-16" style="rounded=0;orthogonalLoop=1;jettySize=auto;html=1;entryX=0;entryY=0;entryDx=0;entryDy=0;exitX=0;exitY=0;exitDx=226;exitDy=205;exitPerimeter=0;entryPerimeter=0;" parent="1" source="_K5rB_ff1AMVYgc-aTN5-2" target="_K5rB_ff1AMVYgc-aTN5-12" edge="1">
          <mxGeometry relative="1" as="geometry">
            <mxPoint x="-476.7209302325582" y="510" as="sourcePoint" />
            <mxPoint x="-413" y="610" as="targetPoint" />
          </mxGeometry>
        </mxCell>
        <mxCell id="CTMe33j5zIT5Y6U0V3GE-6" value="HumanBeingRepository" style="rounded=0;whiteSpace=wrap;html=1;" parent="1" vertex="1">
          <mxGeometry x="-630" y="340" width="150" height="60" as="geometry" />
        </mxCell>
        <mxCell id="CTMe33j5zIT5Y6U0V3GE-7" value="CarRepository" style="rounded=0;whiteSpace=wrap;html=1;" parent="1" vertex="1">
          <mxGeometry x="-630" y="430" width="150" height="60" as="geometry" />
        </mxCell>
        <mxCell id="CTMe33j5zIT5Y6U0V3GE-10" value="com.is.lab1.data" style="text;html=1;align=center;verticalAlign=middle;whiteSpace=wrap;rounded=0;" parent="1" vertex="1">
          <mxGeometry x="-390" y="610" width="60" height="30" as="geometry" />
        </mxCell>
        <mxCell id="CTMe33j5zIT5Y6U0V3GE-11" value="Car" style="rounded=0;whiteSpace=wrap;html=1;" parent="1" vertex="1">
          <mxGeometry x="-350" y="640" width="120" height="60" as="geometry" />
        </mxCell>
        <mxCell id="CTMe33j5zIT5Y6U0V3GE-12" value="HumanBeing" style="rounded=0;whiteSpace=wrap;html=1;" parent="1" vertex="1">
          <mxGeometry x="-220" y="640" width="120" height="60" as="geometry" />
        </mxCell>
        <mxCell id="CTMe33j5zIT5Y6U0V3GE-13" value="WeaponType" style="rounded=0;whiteSpace=wrap;html=1;" parent="1" vertex="1">
          <mxGeometry x="-90" y="640" width="120" height="60" as="geometry" />
        </mxCell>
        <mxCell id="CTMe33j5zIT5Y6U0V3GE-14" value="Mood" style="rounded=0;whiteSpace=wrap;html=1;" parent="1" vertex="1">
          <mxGeometry x="-350" y="710" width="120" height="60" as="geometry" />
        </mxCell>
        <mxCell id="CTMe33j5zIT5Y6U0V3GE-18" value="com.is.lab1.service" style="text;html=1;align=center;verticalAlign=middle;whiteSpace=wrap;rounded=0;" parent="1" vertex="1">
          <mxGeometry x="-350" y="320" width="60" height="30" as="geometry" />
        </mxCell>
        <mxCell id="CTMe33j5zIT5Y6U0V3GE-19" style="edgeStyle=orthogonalEdgeStyle;rounded=0;orthogonalLoop=1;jettySize=auto;html=1;" parent="1" edge="1">
          <mxGeometry relative="1" as="geometry">
            <mxPoint x="-380" y="410" as="sourcePoint" />
            <mxPoint x="-470" y="410" as="targetPoint" />
          </mxGeometry>
        </mxCell>
        <mxCell id="CTMe33j5zIT5Y6U0V3GE-20" value="CarService" style="rounded=0;whiteSpace=wrap;html=1;" parent="1" vertex="1">
          <mxGeometry x="-360" y="340" width="120" height="60" as="geometry" />
        </mxCell>
        <mxCell id="CTMe33j5zIT5Y6U0V3GE-21" value="HumanBeingService" style="rounded=0;whiteSpace=wrap;html=1;" parent="1" vertex="1">
          <mxGeometry x="-220" y="340" width="120" height="60" as="geometry" />
        </mxCell>
        <mxCell id="CTMe33j5zIT5Y6U0V3GE-22" value="SseService" style="rounded=0;whiteSpace=wrap;html=1;" parent="1" vertex="1">
          <mxGeometry x="-80" y="340" width="120" height="60" as="geometry" />
        </mxCell>
        <mxCell id="CTMe33j5zIT5Y6U0V3GE-23" style="edgeStyle=orthogonalEdgeStyle;rounded=0;orthogonalLoop=1;jettySize=auto;html=1;entryX=0.53;entryY=0.02;entryDx=0;entryDy=0;entryPerimeter=0;exitX=0.553;exitY=1.006;exitDx=0;exitDy=0;exitPerimeter=0;" parent="1" source="_K5rB_ff1AMVYgc-aTN5-1" edge="1">
          <mxGeometry relative="1" as="geometry">
            <mxPoint x="-129.30999999999995" y="323.5999999999999" as="targetPoint" />
          </mxGeometry>
        </mxCell>
        <mxCell id="CTMe33j5zIT5Y6U0V3GE-25" style="edgeStyle=orthogonalEdgeStyle;rounded=0;orthogonalLoop=1;jettySize=auto;html=1;entryX=0.994;entryY=0.556;entryDx=0;entryDy=0;entryPerimeter=0;" parent="1" edge="1">
          <mxGeometry relative="1" as="geometry">
            <mxPoint x="170" y="420.0588235294117" as="sourcePoint" />
            <mxPoint x="90.16199999999981" y="420.0799999999999" as="targetPoint" />
          </mxGeometry>
        </mxCell>
        <mxCell id="CTMe33j5zIT5Y6U0V3GE-26" style="edgeStyle=orthogonalEdgeStyle;rounded=0;orthogonalLoop=1;jettySize=auto;html=1;entryX=0.007;entryY=0.447;entryDx=0;entryDy=0;entryPerimeter=0;" parent="1" edge="1">
          <mxGeometry relative="1" as="geometry">
            <mxPoint x="93" y="410.0588235294117" as="sourcePoint" />
            <mxPoint x="173.31100000000015" y="410.46000000000004" as="targetPoint" />
          </mxGeometry>
        </mxCell>
        <mxCell id="CTMe33j5zIT5Y6U0V3GE-27" style="rounded=0;orthogonalLoop=1;jettySize=auto;html=1;entryX=0;entryY=0;entryDx=0;entryDy=0;entryPerimeter=0;exitX=0.999;exitY=0.861;exitDx=0;exitDy=0;exitPerimeter=0;" parent="1" source="_K5rB_ff1AMVYgc-aTN5-1" target="_K5rB_ff1AMVYgc-aTN5-9" edge="1">
          <mxGeometry relative="1" as="geometry">
            <mxPoint x="92.31910980320026" y="260" as="sourcePoint" />
            <mxPoint x="448.59699999999975" y="328.74" as="targetPoint" />
          </mxGeometry>
        </mxCell>
        <mxCell id="CTMe33j5zIT5Y6U0V3GE-28" value="com.is.lab1.controller" style="text;html=1;align=center;verticalAlign=middle;whiteSpace=wrap;rounded=0;" parent="1" vertex="1">
          <mxGeometry x="210" y="320" width="60" height="30" as="geometry" />
        </mxCell>
        <mxCell id="CTMe33j5zIT5Y6U0V3GE-29" value="CarController" style="rounded=0;whiteSpace=wrap;html=1;" parent="1" vertex="1">
          <mxGeometry x="200" y="365" width="120" height="60" as="geometry" />
        </mxCell>
        <mxCell id="CTMe33j5zIT5Y6U0V3GE-30" value="GlobalExceptionHandler" style="rounded=0;whiteSpace=wrap;html=1;" parent="1" vertex="1">
          <mxGeometry x="330" y="365" width="150" height="60" as="geometry" />
        </mxCell>
        <mxCell id="CTMe33j5zIT5Y6U0V3GE-31" value="HumanBeingController" style="rounded=0;whiteSpace=wrap;html=1;" parent="1" vertex="1">
          <mxGeometry x="500" y="365" width="130" height="60" as="geometry" />
        </mxCell>
        <mxCell id="CTMe33j5zIT5Y6U0V3GE-32" value="SseController" style="rounded=0;whiteSpace=wrap;html=1;" parent="1" vertex="1">
          <mxGeometry x="200" y="440" width="120" height="60" as="geometry" />
        </mxCell>
        <mxCell id="CTMe33j5zIT5Y6U0V3GE-33" value="WebController" style="rounded=0;whiteSpace=wrap;html=1;" parent="1" vertex="1">
          <mxGeometry x="330" y="440" width="120" height="60" as="geometry" />
        </mxCell>
        <mxCell id="CTMe33j5zIT5Y6U0V3GE-34" style="edgeStyle=orthogonalEdgeStyle;rounded=0;orthogonalLoop=1;jettySize=auto;html=1;" parent="1" edge="1">
          <mxGeometry relative="1" as="geometry">
            <mxPoint x="-142" y="550" as="sourcePoint" />
            <mxPoint x="-142" y="600" as="targetPoint" />
          </mxGeometry>
        </mxCell>
        <mxCell id="CTMe33j5zIT5Y6U0V3GE-35" style="rounded=0;orthogonalLoop=1;jettySize=auto;html=1;entryX=0;entryY=0;entryDx=470;entryDy=14;entryPerimeter=0;exitX=0;exitY=0;exitDx=0;exitDy=242.5;exitPerimeter=0;" parent="1" source="_K5rB_ff1AMVYgc-aTN5-9" target="_K5rB_ff1AMVYgc-aTN5-12" edge="1">
          <mxGeometry relative="1" as="geometry">
            <mxPoint x="235.47466110531786" y="510" as="sourcePoint" />
            <mxPoint x="42.026000000000295" y="611.8" as="targetPoint" />
          </mxGeometry>
        </mxCell>
        <mxCell id="_K5rB_ff1AMVYgc-aTN5-4" value="ImportService" style="rounded=0;whiteSpace=wrap;html=1;" vertex="1" parent="1">
          <mxGeometry x="-360" y="410" width="120" height="60" as="geometry" />
        </mxCell>
        <mxCell id="_K5rB_ff1AMVYgc-aTN5-5" value="ValidationService" style="rounded=0;whiteSpace=wrap;html=1;" vertex="1" parent="1">
          <mxGeometry x="-220" y="410" width="120" height="60" as="geometry" />
        </mxCell>
        <mxCell id="_K5rB_ff1AMVYgc-aTN5-6" value="GeolocationService" style="rounded=0;whiteSpace=wrap;html=1;" vertex="1" parent="1">
          <mxGeometry x="-80" y="410" width="120" height="60" as="geometry" />
        </mxCell>
        <mxCell id="_K5rB_ff1AMVYgc-aTN5-7" value="LockService" style="rounded=0;whiteSpace=wrap;html=1;" vertex="1" parent="1">
          <mxGeometry x="-360" y="480" width="120" height="60" as="geometry" />
        </mxCell>
        <mxCell id="_K5rB_ff1AMVYgc-aTN5-8" value="ImportController" style="rounded=0;whiteSpace=wrap;html=1;" vertex="1" parent="1">
          <mxGeometry x="470" y="440" width="150" height="60" as="geometry" />
        </mxCell>
        <mxCell id="_K5rB_ff1AMVYgc-aTN5-10" value="ImportStatus" style="rounded=0;whiteSpace=wrap;html=1;" vertex="1" parent="1">
          <mxGeometry x="-220" y="710" width="120" height="60" as="geometry" />
        </mxCell>
        <mxCell id="_K5rB_ff1AMVYgc-aTN5-11" value="ImportOperation" style="rounded=0;whiteSpace=wrap;html=1;" vertex="1" parent="1">
          <mxGeometry x="-90" y="710" width="120" height="60" as="geometry" />
        </mxCell>
      </root>
    </mxGraphModel>
  </diagram>
</mxfile>
